<?xml version="1.0" encoding="UTF-8"?>
<svg xmlns="http://www.w3.org/2000/svg" id="Layer_2" data-name="Layer 2" viewBox="0 0 1080 407.4">
  <defs>
    <style>
      .cls-1 {
        fill: #ff4e00;
      }

      .cls-2 {
        fill: none;
        stroke: #000;
        stroke-miterlimit: 10;
        stroke-width: 5px;
      }
    </style>
  </defs>
  <g>
    <path d="M133.43,333.54c-.97,1.8-2.49,3.25-4.56,4.35-2.07,1.1-4.69,1.65-7.84,1.65h-6.44v14.74h-7.7v-38.39h14.14c2.97,0,5.5.51,7.59,1.54,2.09,1.03,3.66,2.44,4.7,4.23,1.04,1.8,1.57,3.83,1.57,6.11,0,2.05-.49,3.98-1.46,5.78ZM125.43,331.86c1.03-.97,1.54-2.34,1.54-4.1,0-3.74-2.09-5.61-6.27-5.61h-6.11v11.17h6.11c2.13,0,3.7-.49,4.73-1.46Z"></path>
    <path d="M160.14,354.28l-8.47-14.96h-3.63v14.96h-7.7v-38.39h14.41c2.97,0,5.5.52,7.59,1.57,2.09,1.04,3.66,2.46,4.7,4.24s1.57,3.77,1.57,5.97c0,2.53-.73,4.81-2.2,6.85-1.47,2.04-3.65,3.44-6.55,4.21l9.19,15.57h-8.91ZM148.04,333.54h6.44c2.09,0,3.65-.5,4.67-1.51,1.03-1.01,1.54-2.41,1.54-4.21s-.51-3.13-1.54-4.1c-1.03-.97-2.58-1.46-4.67-1.46h-6.44v11.28Z"></path>
    <path d="M183.51,352.13c-3.01-1.69-5.39-4.02-7.15-7.01-1.76-2.99-2.64-6.37-2.64-10.15s.88-7.1,2.64-10.09c1.76-2.99,4.14-5.33,7.15-7.01,3.01-1.69,6.31-2.53,9.9-2.53s6.94.84,9.93,2.53c2.99,1.69,5.35,4.02,7.1,7.01,1.74,2.99,2.61,6.35,2.61,10.09s-.87,7.16-2.61,10.15c-1.74,2.99-4.12,5.33-7.12,7.01-3.01,1.69-6.31,2.53-9.9,2.53s-6.89-.84-9.9-2.53ZM199.52,346.22c1.76-1.04,3.13-2.54,4.12-4.48.99-1.94,1.48-4.2,1.48-6.76s-.49-4.81-1.48-6.74-2.37-3.4-4.12-4.43c-1.76-1.03-3.8-1.54-6.11-1.54s-4.35.51-6.13,1.54c-1.78,1.03-3.16,2.5-4.15,4.43s-1.48,4.17-1.48,6.74.49,4.82,1.48,6.76c.99,1.94,2.37,3.44,4.15,4.48,1.78,1.04,3.82,1.57,6.13,1.57s4.35-.52,6.11-1.57Z"></path>
    <path d="M253.26,315.89l-14.08,38.39h-9.35l-14.08-38.39h8.25l10.56,30.53,10.51-30.53h8.2Z"></path>
    <path d="M265.58,315.89v38.39h-7.7v-38.39h7.7Z"></path>
    <path d="M306,354.28h-7.7l-17.44-26.35v26.35h-7.7v-38.45h7.7l17.44,26.4v-26.4h7.7v38.45Z"></path>
    <path d="M319.62,353.29c-2.15-.92-3.84-2.24-5.09-3.96-1.25-1.72-1.89-3.76-1.93-6.11h8.25c.11,1.58.67,2.82,1.68,3.74,1.01.92,2.39,1.38,4.15,1.38s3.21-.43,4.24-1.29c1.03-.86,1.54-1.99,1.54-3.38,0-1.14-.35-2.07-1.04-2.81-.7-.73-1.57-1.31-2.61-1.73-1.04-.42-2.48-.89-4.32-1.4-2.49-.73-4.52-1.46-6.08-2.17-1.56-.71-2.9-1.8-4.02-3.25-1.12-1.45-1.68-3.38-1.68-5.8,0-2.27.57-4.25,1.71-5.94,1.14-1.69,2.73-2.98,4.79-3.88,2.05-.9,4.4-1.35,7.04-1.35,3.96,0,7.18.96,9.65,2.89,2.48,1.93,3.84,4.61,4.1,8.06h-8.47c-.07-1.32-.63-2.41-1.68-3.27-1.04-.86-2.43-1.29-4.15-1.29-1.5,0-2.7.38-3.6,1.16-.9.77-1.35,1.89-1.35,3.35,0,1.03.34,1.88,1.02,2.56.68.68,1.52,1.23,2.53,1.65,1.01.42,2.43.91,4.26,1.46,2.49.73,4.53,1.47,6.11,2.2,1.58.73,2.93,1.83,4.07,3.3,1.14,1.47,1.71,3.39,1.71,5.78,0,2.05-.53,3.96-1.6,5.72-1.06,1.76-2.62,3.16-4.68,4.21-2.05,1.04-4.49,1.57-7.32,1.57-2.68,0-5.09-.46-7.23-1.38Z"></path>
    <path d="M354.79,315.89v38.39h-7.7v-38.39h7.7Z"></path>
    <path d="M397.14,354.28l-13.97-17.11v17.11h-7.7v-38.39h7.7v17.22l13.97-17.22h9.3l-15.84,19.03,16.28,19.36h-9.74Z"></path>
    <path d="M435.48,346.96h-15.29l-2.53,7.32h-8.09l13.81-38.45h8.97l13.81,38.45h-8.14l-2.53-7.32ZM433.39,340.8l-5.56-16.06-5.56,16.06h11.11Z"></path>
    <path d="M459.02,348.17h12.65v6.11h-20.35v-38.39h7.7v32.29Z"></path>
    <path d="M484.27,315.89v38.39h-7.7v-38.39h7.7Z"></path>
    <path d="M533.71,315.89v38.39h-7.7v-24.97l-10.29,24.97h-5.83l-10.34-24.97v24.97h-7.7v-38.39h8.75l12.21,28.55,12.21-28.55h8.69Z"></path>
    <path d="M564.84,346.96h-15.29l-2.53,7.32h-8.08l13.81-38.45h8.96l13.81,38.45h-8.14l-2.53-7.32ZM562.75,340.8l-5.55-16.06-5.55,16.06h11.11Z"></path>
    <path d="M613.52,354.28h-7.7l-17.44-26.35v26.35h-7.7v-38.45h7.7l17.44,26.4v-26.4h7.7v38.45Z"></path>
    <path d="M647.24,315.89v6.21h-10.23v32.18h-7.7v-32.18h-10.23v-6.21h28.16Z"></path>
    <path d="M676.39,346.96h-15.29l-2.53,7.32h-8.09l13.81-38.45h8.97l13.81,38.45h-8.14l-2.53-7.32ZM674.3,340.8l-5.55-16.06-5.56,16.06h11.11Z"></path>
    <path d="M725.06,354.28h-7.7l-17.44-26.35v26.35h-7.7v-38.45h7.7l17.44,26.4v-26.4h7.7v38.45Z"></path>
    <path d="M751.77,353.29c-2.15-.92-3.84-2.24-5.09-3.96-1.25-1.72-1.89-3.76-1.93-6.11h8.25c.11,1.58.67,2.82,1.68,3.74,1.01.92,2.39,1.38,4.15,1.38s3.21-.43,4.24-1.29c1.03-.86,1.54-1.99,1.54-3.38,0-1.14-.35-2.07-1.04-2.81-.7-.73-1.57-1.31-2.61-1.73-1.05-.42-2.49-.89-4.32-1.4-2.49-.73-4.52-1.46-6.08-2.17-1.56-.71-2.9-1.8-4.02-3.25-1.12-1.45-1.68-3.38-1.68-5.8,0-2.27.57-4.25,1.71-5.94,1.14-1.69,2.73-2.98,4.79-3.88,2.05-.9,4.4-1.35,7.04-1.35,3.96,0,7.18.96,9.65,2.89,2.48,1.93,3.84,4.61,4.1,8.06h-8.47c-.07-1.32-.63-2.41-1.68-3.27-1.04-.86-2.43-1.29-4.15-1.29-1.5,0-2.7.38-3.6,1.16-.9.77-1.35,1.89-1.35,3.35,0,1.03.34,1.88,1.02,2.56.68.68,1.52,1.23,2.53,1.65,1.01.42,2.43.91,4.26,1.46,2.49.73,4.53,1.47,6.11,2.2,1.58.73,2.93,1.83,4.07,3.3,1.14,1.47,1.71,3.39,1.71,5.78,0,2.05-.53,3.96-1.59,5.72-1.06,1.76-2.62,3.16-4.68,4.21s-4.49,1.57-7.32,1.57c-2.68,0-5.09-.46-7.23-1.38Z"></path>
    <path d="M786.94,322.1v9.63h12.92v6.1h-12.92v10.18h14.58v6.27h-22.28v-38.45h22.28v6.27h-14.58Z"></path>
    <path d="M816.2,348.17h12.65v6.11h-20.35v-38.39h7.7v32.29Z"></path>
    <path d="M857.29,346.96h-15.29l-2.53,7.32h-8.09l13.81-38.45h8.97l13.81,38.45h-8.14l-2.53-7.32ZM855.2,340.8l-5.55-16.06-5.56,16.06h11.11Z"></path>
    <path d="M899.26,315.89v6.21h-10.23v32.18h-7.7v-32.18h-10.23v-6.21h28.16Z"></path>
    <path d="M928.41,346.96h-15.29l-2.53,7.32h-8.09l13.81-38.45h8.97l13.81,38.45h-8.14l-2.53-7.32ZM926.32,340.8l-5.55-16.06-5.56,16.06h11.11Z"></path>
    <path d="M977.08,354.28h-7.7l-17.44-26.35v26.35h-7.7v-38.45h7.7l17.44,26.4v-26.4h7.7v38.45Z"></path>
  </g>
  <path d="M103.1,33.26v91.31c5.73-21.12,21.37-33.71,41.22-39.96v-51.35s-41.22,0-41.22,0Z"></path>
  <g>
    <path class="cls-1" d="M103.1,152.73c0,15.37,0,59.61,0,59.61,0,0,21.28.07,41.22.12v-117.6c-24.12,8.99-41.22,31.51-41.22,57.86Z"></path>
    <path class="cls-1" d="M199.4,152.73c0,13.68-11.54,24.77-25.76,24.77-7.45,0-14.16-3.04-18.86-7.9v42.88c8.14.01,15.76.02,21.24.02,35.66,0,62.17-25.49,62.17-59.76,0-34.27-28.91-62.05-64.55-62.05-6.56,0-12.89.94-18.86,2.69v42.51c4.7-4.86,11.41-7.9,18.86-7.9,14.22,0,25.76,11.09,25.76,24.76Z"></path>
    <g>
      <path class="cls-1" d="M255.24,130.11c3.9-8.04,9.21-14.23,15.96-18.56,6.74-4.33,14.26-6.49,22.55-6.49,7.17,0,13.36,1.42,18.56,4.27,5.2,2.85,9.21,6.68,12.06,11.51v-14.47h36.37v104.1h-36.37v-14.47c-2.85,4.82-6.9,8.66-12.15,11.5-5.26,2.85-11.41,4.27-18.46,4.27-8.29,0-15.8-2.16-22.55-6.49-6.74-4.33-12.06-10.55-15.96-18.65-3.9-8.1-5.85-17.54-5.85-28.3s1.95-20.16,5.85-28.21ZM318.89,142.54c-3.65-3.83-8.14-5.75-13.45-5.75s-9.96,1.89-13.55,5.66c-3.59,3.77-5.38,9.06-5.38,15.87s1.79,11.97,5.38,15.87c3.59,3.9,8.1,5.85,13.55,5.85s9.8-1.92,13.45-5.75c3.65-3.83,5.47-9.15,5.47-15.96s-1.83-11.94-5.47-15.77Z"></path>
      <path class="cls-1" d="M606.6,165.74h-68.84c.37,5.69,1.95,9.93,4.73,12.71,2.78,2.78,6.34,4.18,10.67,4.18,6.06,0,10.39-2.72,12.99-8.17h38.78c-1.61,7.18-4.73,13.58-9.37,19.21-4.64,5.63-10.48,10.05-17.54,13.27-7.05,3.22-14.84,4.82-23.38,4.82-10.27,0-19.39-2.16-27.37-6.49-7.98-4.33-14.23-10.51-18.74-18.56-4.52-8.04-6.77-17.5-6.77-28.39s2.23-20.32,6.68-28.3c4.45-7.98,10.67-14.13,18.65-18.46,7.98-4.33,17.16-6.49,27.56-6.49s19.36,2.1,27.28,6.31c7.92,4.21,14.1,10.24,18.56,18.09,4.45,7.86,6.68,17.1,6.68,27.74,0,2.85-.18,5.69-.56,8.54ZM570.05,148.11c0-4.45-1.49-7.95-4.45-10.48-2.97-2.53-6.68-3.8-11.13-3.8s-8.1,1.21-10.95,3.62c-2.85,2.41-4.7,5.97-5.57,10.67h32.1Z"></path>
      <path class="cls-1" d="M718.68,117.4c7.05,7.98,10.58,18.77,10.58,32.38v60.68h-36.37v-55.86c0-5.94-1.55-10.61-4.64-14.01-3.09-3.4-7.24-5.1-12.43-5.1s-9.71,1.7-12.8,5.1c-3.09,3.4-4.64,8.07-4.64,14.01v55.86h-36.37v-104.1h36.37v14.84c3.22-4.7,7.54-8.5,12.99-11.41,5.44-2.9,11.69-4.36,18.74-4.36,12,0,21.53,3.99,28.58,11.97Z"></path>
      <path class="cls-1" d="M749.2,130.11c3.9-8.04,9.25-14.23,16.05-18.56,6.8-4.33,14.35-6.49,22.64-6.49,6.68,0,12.65,1.39,17.91,4.18,5.26,2.78,9.37,6.59,12.34,11.41v-47.5h36.56v137.32h-36.56v-14.47c-2.85,4.82-6.87,8.66-12.06,11.5-5.2,2.85-11.32,4.27-18.37,4.27-8.29,0-15.8-2.16-22.55-6.49-6.75-4.33-12.06-10.55-15.96-18.65-3.9-8.1-5.85-17.54-5.85-28.3s1.95-20.16,5.85-28.21ZM812.85,142.54c-3.65-3.83-8.14-5.75-13.45-5.75s-9.96,1.89-13.55,5.66c-3.59,3.77-5.38,9.06-5.38,15.87s1.79,11.97,5.38,15.87c3.59,3.9,8.1,5.85,13.55,5.85s9.8-1.92,13.45-5.75c3.65-3.83,5.47-9.15,5.47-15.96s-1.83-11.94-5.47-15.77Z"></path>
      <path class="cls-1" d="M875.39,130.11c3.9-8.04,9.21-14.23,15.96-18.56,6.74-4.33,14.26-6.49,22.55-6.49,7.17,0,13.36,1.42,18.56,4.27,5.2,2.85,9.21,6.68,12.06,11.51v-14.47h36.37v104.1h-36.37v-14.47c-2.85,4.82-6.9,8.66-12.15,11.5-5.26,2.85-11.41,4.27-18.46,4.27-8.29,0-15.8-2.16-22.55-6.49-6.75-4.33-12.06-10.55-15.96-18.65-3.9-8.1-5.85-17.54-5.85-28.3s1.95-20.16,5.85-28.21ZM939.03,142.54c-3.65-3.83-8.14-5.75-13.45-5.75s-9.96,1.89-13.55,5.66c-3.59,3.77-5.38,9.06-5.38,15.87s1.79,11.97,5.38,15.87c3.59,3.9,8.1,5.85,13.55,5.85s9.8-1.92,13.45-5.75c3.65-3.83,5.47-9.15,5.47-15.96s-1.83-11.94-5.47-15.77Z"></path>
      <path class="cls-1" d="M486.64,186.52c-3.9,8.04-9.25,14.23-16.05,18.56-6.8,4.33-14.35,6.49-22.64,6.49-6.68,0-12.65-1.39-17.91-4.18-5.26-2.78-9.37-6.59-12.34-11.41v47.5h-36.56V106.17h36.56v14.47c2.85-4.82,6.87-8.66,12.06-11.5,5.2-2.85,11.32-4.27,18.37-4.27,8.29,0,15.8,2.16,22.55,6.49,6.75,4.33,12.06,10.55,15.96,18.65,3.9,8.1,5.85,17.54,5.85,28.3s-1.95,20.16-5.85,28.21ZM422.99,174.09c3.65,3.83,8.14,5.75,13.45,5.75s9.96-1.89,13.55-5.66c3.59-3.77,5.38-9.06,5.38-15.87s-1.79-11.97-5.38-15.87c-3.59-3.9-8.1-5.85-13.55-5.85s-9.8,1.92-13.45,5.75c-3.65,3.83-5.47,9.15-5.47,15.96s1.83,11.94,5.47,15.77Z"></path>
    </g>
  </g>
  <line class="cls-2" x1="100.45" y1="271.41" x2="978.23" y2="271.41"></line>
</svg>
